name rise49.5252peak65.1548fall88.8305.mot
datacolumns 19
datarows 21
range 10.03497100000000 10.06829200000000
endheader
time	ground_force1_vx	ground_force1_vy	ground_force1_vz	ground_force1_px	ground_force1_py	ground_force1_pz	ground_force2_vx	ground_force2_vy	ground_force2_vz	ground_force2_px	ground_force2_py	ground_force2_pz	ground_torque1_x	ground_torque1_y	ground_torque1_z	ground_torque2_x	ground_torque2_y	ground_torque2_z	
10.03497100000000	54.82183900000000	794.22515199999998	65.87192600000000	0.39900400000000	0.00000000000000	0.12377600000000	0.00000000000000	0.00000000000000	0.00000000000000	0.00000000000000	0.00000000000000	0.00000000000000	0.00000000000000	36.89818000000000	0.00000000000000	0.00000000000000	0.00000000000000	0.00000000000000	
10.03661900000000	53.82668000000000	795.35154799999998	65.88868600000001	0.39745500000000	0.00000000000000	0.12376100000000	0.00000000000000	0.00000000000000	0.00000000000000	0.00000000000000	0.00000000000000	0.00000000000000	0.00000000000000	36.93293300000000	0.00000000000000	0.00000000000000	0.00000000000000	0.00000000000000	
10.03828700000000	52.84106900000000	796.34556999999995	65.90191200000000	0.39589400000000	0.00000000000000	0.12374700000000	0.00000000000000	0.00000000000000	0.00000000000000	0.00000000000000	0.00000000000000	0.00000000000000	0.00000000000000	36.96192400000000	0.00000000000000	0.00000000000000	0.00000000000000	0.00000000000000	
10.03995300000000	51.86588000000000	797.20730100000003	65.91163000000000	0.39432300000000	0.00000000000000	0.12373500000000	0.00000000000000	0.00000000000000	0.00000000000000	0.00000000000000	0.00000000000000	0.00000000000000	0.00000000000000	36.98519100000000	0.00000000000000	0.00000000000000	0.00000000000000	0.00000000000000	
10.04162700000000	50.90186500000000	797.93696399999999	65.91778700000000	0.39274200000000	0.00000000000000	0.12372300000000	0.00000000000000	0.00000000000000	0.00000000000000	0.00000000000000	0.00000000000000	0.00000000000000	0.00000000000000	37.00273200000000	0.00000000000000	0.00000000000000	0.00000000000000	0.00000000000000	
10.04329200000000	49.94966200000000	798.53493900000001	65.92025900000000	0.39115300000000	0.00000000000000	0.12371200000000	0.00000000000000	0.00000000000000	0.00000000000000	0.00000000000000	0.00000000000000	0.00000000000000	0.00000000000000	37.01451000000000	0.00000000000000	0.00000000000000	0.00000000000000	0.00000000000000	
10.04495900000000	49.00979300000000	799.00176799999997	65.91884800000000	0.38955600000000	0.00000000000000	0.12370100000000	0.00000000000000	0.00000000000000	0.00000000000000	0.00000000000000	0.00000000000000	0.00000000000000	0.00000000000000	37.02045800000000	0.00000000000000	0.00000000000000	0.00000000000000	0.00000000000000	
10.04662300000000	48.08267000000000	799.33816999999999	65.91329600000000	0.38795100000000	0.00000000000000	0.12369100000000	0.00000000000000	0.00000000000000	0.00000000000000	0.00000000000000	0.00000000000000	0.00000000000000	0.00000000000000	37.02047900000000	0.00000000000000	0.00000000000000	0.00000000000000	0.00000000000000	
10.04828700000000	47.16859800000000	799.54504499999996	65.90328500000000	0.38634000000000	0.00000000000000	0.12368200000000	0.00000000000000	0.00000000000000	0.00000000000000	0.00000000000000	0.00000000000000	0.00000000000000	0.00000000000000	37.01445300000000	0.00000000000000	0.00000000000000	0.00000000000000	0.00000000000000	
10.04995500000000	46.26777900000000	799.62348599999996	65.88844600000000	0.38472400000000	0.00000000000000	0.12367300000000	0.00000000000000	0.00000000000000	0.00000000000000	0.00000000000000	0.00000000000000	0.00000000000000	0.00000000000000	37.00224200000000	0.00000000000000	0.00000000000000	0.00000000000000	0.00000000000000	
10.05162000000000	45.38031800000000	799.57478400000002	65.86836400000000	0.38310200000000	0.00000000000000	0.12366400000000	0.00000000000000	0.00000000000000	0.00000000000000	0.00000000000000	0.00000000000000	0.00000000000000	0.00000000000000	36.98368900000000	0.00000000000000	0.00000000000000	0.00000000000000	0.00000000000000	
10.05329400000000	44.50622600000000	799.40043300000002	65.84258500000000	0.38147600000000	0.00000000000000	0.12365500000000	0.00000000000000	0.00000000000000	0.00000000000000	0.00000000000000	0.00000000000000	0.00000000000000	0.00000000000000	36.95862700000000	0.00000000000000	0.00000000000000	0.00000000000000	0.00000000000000	
10.05496000000000	43.64542700000000	799.10213599999997	65.81062100000000	0.37984600000000	0.00000000000000	0.12364700000000	0.00000000000000	0.00000000000000	0.00000000000000	0.00000000000000	0.00000000000000	0.00000000000000	0.00000000000000	36.92688200000000	0.00000000000000	0.00000000000000	0.00000000000000	0.00000000000000	
10.05662700000000	42.79776400000000	798.68180600000005	65.77195900000000	0.37821200000000	0.00000000000000	0.12363800000000	0.00000000000000	0.00000000000000	0.00000000000000	0.00000000000000	0.00000000000000	0.00000000000000	0.00000000000000	36.88827300000000	0.00000000000000	0.00000000000000	0.00000000000000	0.00000000000000	
10.05828800000000	41.96300500000000	798.14156900000000	65.72606600000000	0.37657600000000	0.00000000000000	0.12362800000000	0.00000000000000	0.00000000000000	0.00000000000000	0.00000000000000	0.00000000000000	0.00000000000000	0.00000000000000	36.84262100000000	0.00000000000000	0.00000000000000	0.00000000000000	0.00000000000000	
10.05995400000000	41.14084800000000	797.48376599999995	65.67239800000000	0.37493700000000	0.00000000000000	0.12361900000000	0.00000000000000	0.00000000000000	0.00000000000000	0.00000000000000	0.00000000000000	0.00000000000000	0.00000000000000	36.78975000000000	0.00000000000000	0.00000000000000	0.00000000000000	0.00000000000000	
10.06162000000000	40.33092800000000	796.71094900000003	65.61040199999999	0.37329600000000	0.00000000000000	0.12360900000000	0.00000000000000	0.00000000000000	0.00000000000000	0.00000000000000	0.00000000000000	0.00000000000000	0.00000000000000	36.72949100000000	0.00000000000000	0.00000000000000	0.00000000000000	0.00000000000000	
10.06329300000000	39.53282500000000	795.82588099999998	65.53952600000000	0.37165400000000	0.00000000000000	0.12359800000000	0.00000000000000	0.00000000000000	0.00000000000000	0.00000000000000	0.00000000000000	0.00000000000000	0.00000000000000	36.66168500000000	0.00000000000000	0.00000000000000	0.00000000000000	0.00000000000000	
10.06496000000000	38.74607100000000	794.83153500000003	65.45922800000000	0.37001000000000	0.00000000000000	0.12358600000000	0.00000000000000	0.00000000000000	0.00000000000000	0.00000000000000	0.00000000000000	0.00000000000000	0.00000000000000	36.58618600000000	0.00000000000000	0.00000000000000	0.00000000000000	0.00000000000000	
10.06662300000000	37.97015300000000	793.73108600000000	65.36897500000001	0.36836600000000	0.00000000000000	0.12357400000000	0.00000000000000	0.00000000000000	0.00000000000000	0.00000000000000	0.00000000000000	0.00000000000000	0.00000000000000	36.50286400000000	0.00000000000000	0.00000000000000	0.00000000000000	0.00000000000000	
10.06829200000000	37.20452500000000	792.52790800000002	65.26825500000000	0.36672000000000	0.00000000000000	0.12356000000000	0.00000000000000	0.00000000000000	0.00000000000000	0.00000000000000	0.00000000000000	0.00000000000000	0.00000000000000	36.41160800000000	0.00000000000000	0.00000000000000	0.00000000000000	0.00000000000000	
